<?xml version="1.0" standalone="no"?>
<!DOCTYPE svg PUBLIC "-//W3C//DTD SVG 1.1//EN" "http://www.w3.org/Graphics/SVG/1.1/DTD/svg11.dtd" >
<svg xmlns="http://www.w3.org/2000/svg" xmlns:xlink="http://www.w3.org/1999/xlink" version="1.1">
<metadata>
Created by FontForge 20201107 at Mon Apr 14 07:40:43 2025
 By 
Copyright (c) 2017, Lee Robson Spence / LRS Fonts &#38; Lettering | www.leerobsonspence.com
</metadata>
<defs>
<font id="Envoyer-Regular" horiz-adv-x="368" >
  <font-face 
    font-family="Envoyer"
    font-weight="400"
    font-stretch="normal"
    units-per-em="2048"
    panose-1="2 0 5 3 0 0 0 0 0 0"
    ascent="1638"
    descent="-410"
    x-height="1126"
    cap-height="1561"
    bbox="-115 -354 1888 1784"
    underline-thickness="100"
    underline-position="-300"
    unicode-range="U+0001-FB02"
  />
<missing-glyph horiz-adv-x="1024" 
d="M102 0v1092h820v-1092h-820zM205 102h614v887h-614v-887z" />
    <glyph glyph-name=".notdef" horiz-adv-x="1024" 
d="M102 0v1092h820v-1092h-820zM205 102h614v887h-614v-887z" />
    <glyph glyph-name="uni0000" horiz-adv-x="819" 
 />
    <glyph glyph-name="uni0000" horiz-adv-x="819" 
 />
    <glyph glyph-name="uni000D" unicode="&#xd;" horiz-adv-x="819" 
 />
    <glyph glyph-name="uni0001" horiz-adv-x="819" 
 />
    <glyph glyph-name="uni0002" horiz-adv-x="819" 
 />
    <glyph glyph-name="uni0003" horiz-adv-x="819" 
 />
    <glyph glyph-name="uni0004" horiz-adv-x="819" 
 />
    <glyph glyph-name="uni0005" horiz-adv-x="819" 
 />
    <glyph glyph-name="uni0006" horiz-adv-x="819" 
 />
    <glyph glyph-name="uni0007" horiz-adv-x="819" 
 />
    <glyph glyph-name="uni0008" horiz-adv-x="819" 
 />
    <glyph glyph-name="uni0009" unicode="&#x9;" horiz-adv-x="819" 
 />
    <glyph glyph-name="uni000A" unicode="&#xa;" horiz-adv-x="819" 
 />
    <glyph glyph-name="uni000B" horiz-adv-x="819" 
 />
    <glyph glyph-name="uni000C" horiz-adv-x="819" 
 />
    <glyph glyph-name="uni000E" horiz-adv-x="819" 
 />
    <glyph glyph-name="uni000F" horiz-adv-x="819" 
 />
    <glyph glyph-name="uni0010" horiz-adv-x="819" 
 />
    <glyph glyph-name="uni0011" horiz-adv-x="819" 
 />
    <glyph glyph-name="uni0012" horiz-adv-x="819" 
 />
    <glyph glyph-name="uni0013" horiz-adv-x="819" 
 />
    <glyph glyph-name="uni0014" horiz-adv-x="819" 
 />
    <glyph glyph-name="uni0015" horiz-adv-x="819" 
 />
    <glyph glyph-name="uni0016" horiz-adv-x="819" 
 />
    <glyph glyph-name="uni0017" horiz-adv-x="819" 
 />
    <glyph glyph-name="uni0018" horiz-adv-x="819" 
 />
    <glyph glyph-name="uni0019" horiz-adv-x="819" 
 />
    <glyph glyph-name="uni001A" horiz-adv-x="819" 
 />
    <glyph glyph-name="uni001B" horiz-adv-x="819" 
 />
    <glyph glyph-name="uni001C" horiz-adv-x="819" 
 />
    <glyph glyph-name="uni001D" horiz-adv-x="819" 
 />
    <glyph glyph-name="uni001E" horiz-adv-x="819" 
 />
    <glyph glyph-name="uni001F" horiz-adv-x="819" 
 />
    <glyph glyph-name="space" unicode=" " horiz-adv-x="819" 
 />
    <glyph glyph-name="exclam" unicode="!" horiz-adv-x="528" 
d="M281 1442q10 -10 10 -23v-784l143 -113l-35 -45l-151 123q-10 10 -10 23v786l-144 111l35 41zM399 84l-174 137l35 45l174 -139z" />
    <glyph glyph-name="quotedbl" unicode="&#x22;" horiz-adv-x="655" 
d="M193 1278v272h55v-272h-55zM410 1278v272h55v-272h-55z" />
    <glyph glyph-name="numbersign" unicode="#" horiz-adv-x="1513" 
d="M1280 1561l49 -27l-262 -500h53q9 0 15 -6l155 -121l-35 -43l-145 115h-72l-174 -334h256q9 0 15 -6l155 -121l-35 -45l-145 117h-274l-269 -510l-49 26l254 484h-270l-269 -510l-49 26l254 484h-55q-12 0 -18 6l-152 121l35 43l145 -117h74l174 336h-258q-2 0 -6 -1
t-7 -1t-5 2l-152 127l35 45l145 -117h279l276 527l47 -27l-262 -500h273zM801 645l174 334h-270l-177 -334h273z" />
    <glyph glyph-name="dollar" unicode="$" horiz-adv-x="1150" 
d="M944 805l-375 262l-317 -223l698 -447q15 -7 15 -22q0 -13 -13 -23l-354 -248v-159h-57v159l-377 265l33 45l372 -260l318 219l-699 448q-14 7 -14 23q0 13 12 22l355 248v162h57v-162l377 -264z" />
    <glyph glyph-name="percent" unicode="%" horiz-adv-x="1228" 
d="M260 78l-51 26l764 1455l49 -27zM356 1122q-8 0 -14 6l-147 103q-11 8 -11 20v172q0 13 13 23l145 100q15 9 29 0l147 -100q10 -8 10 -23v-172q0 -13 -10 -20l-145 -103q-6 -6 -17 -6zM240 1409v-143l116 -82l117 82v143l-117 80zM858 510q15 9 31 0l145 -102
q10 -8 10 -23v-172q0 -15 -10 -23l-145 -98q-4 -4 -17 -4q-10 0 -14 4l-145 98q-13 10 -13 23v172q0 13 13 23zM989 227v144l-117 82l-114 -82v-144l114 -80z" />
    <glyph glyph-name="ampersand" unicode="&#x26;" horiz-adv-x="1218" 
d="M1124 305l-28 -45l-140 88l-354 -246q-6 -6 -14 -6q-11 0 -17 6l-366 256q-12 9 -12 23q0 16 12 22l327 213l-327 209q-12 6 -12 23q0 15 12 24l366 256q15 9 31 0l391 -272l-32 -45l-373 260l-318 -221l658 -420v184h55v-219zM588 158l317 221l-319 205l-316 -205z" />
    <glyph glyph-name="quotesingle" unicode="'" horiz-adv-x="342" 
d="M94 1278v272h56v-272h-56z" />
    <glyph glyph-name="parenleft" unicode="(" horiz-adv-x="624" 
d="M248 1475v-1301l377 -264l-29 -45l-393 270q-10 7 -10 25v1329q0 15 10 22l391 273l31 -45z" />
    <glyph glyph-name="parenright" unicode=")" horiz-adv-x="626" 
d="M422 1511q12 -9 12 -22v-1329q0 -16 -12 -25l-391 -270l-31 45l377 264v1301l-375 264l31 45z" />
    <glyph glyph-name="asterisk" unicode="*" horiz-adv-x="733" 
d="M549 1262l-14 -25l-13 -23l-24 15l-103 59v-145h-55v147l-127 -76l-29 48l127 75l-104 64l-23 12l15 25l14 24l23 -14l104 -62v148h55v-148l127 76l27 -49l-127 -76l102 -61z" />
    <glyph glyph-name="plus" unicode="+" horiz-adv-x="1445" 
d="M1092 643q12 0 16 -4l154 -121l-35 -45l-146 115h-329v-387h-56v387h-340q-12 0 -18 6l-154 123l35 43l148 -117h329v389h56v-389h340z" />
    <glyph glyph-name="comma" unicode="," horiz-adv-x="387" 
d="M238 131v119h55v-131q0 -11 -12 -23l-152 -121l-35 45z" />
    <glyph glyph-name="hyphen" unicode="-" horiz-adv-x="1445" 
d="M1092 643q12 0 16 -4l154 -121l-35 -45l-146 115h-725q-12 0 -18 6l-154 123l35 43l148 -117h725z" />
    <glyph glyph-name="period" unicode="." horiz-adv-x="487" 
d="M360 80l-176 137l35 45l174 -137z" />
    <glyph glyph-name="slash" unicode="/" horiz-adv-x="1060" 
d="M225 78l-49 26l764 1455l47 -27z" />
    <glyph glyph-name="zero" unicode="0" horiz-adv-x="1173" 
d="M969 1286q12 -9 12 -22v-883q0 -14 -12 -23l-365 -256q-6 -6 -16 -6q-11 0 -17 6l-368 256q-10 7 -10 23v883q0 16 10 24l366 254q17 10 33 0zM926 393v856l-340 238l-338 -238v-854l340 -237z" />
    <glyph glyph-name="one" unicode="1" horiz-adv-x="763" 
d="M506 1520v-1278l143 -113l-35 -43l-153 121q-10 10 -10 20v1241l-347 -241l-30 45l389 270q12 9 29 2q14 -6 14 -24z" />
    <glyph glyph-name="two" unicode="2" horiz-adv-x="1179" 
d="M598 160l373 262l33 -45l-390 -273q-6 -6 -16 -6t-16 6l-367 256q-12 9 -12 23v414q0 13 12 22l698 447l-315 221l-375 -260l-30 43l389 272q16 10 32 0l365 -256q12 -9 12 -22q0 -17 -12 -23l-719 -459v-387z" />
    <glyph glyph-name="three" unicode="3" horiz-adv-x="1167" 
d="M975 1264q0 -17 -12 -23l-330 -211l330 -209q12 -9 12 -22v-414q0 -16 -12 -25l-365 -256q-4 -4 -16 -4q-13 0 -17 4l-389 273l31 43l375 -260l338 237v385l-353 224q-14 10 -14 24t12 23l332 213l-315 221l-375 -260l-31 43l389 272q17 10 33 0l365 -254q12 -9 12 -24z
" />
    <glyph glyph-name="four" unicode="4" horiz-adv-x="1280" 
d="M1026 999v-757l139 -113l-32 -43l-154 121q-10 10 -10 20v516l-324 -223q-6 -6 -14 -6q-9 0 -15 6l-368 256q-12 9 -12 23v608l-142 111l35 43l152 -121q10 -10 10 -23v-606l340 -236l338 236v174l-142 113l35 45l152 -121q12 -12 12 -23z" />
    <glyph glyph-name="five" unicode="5" horiz-adv-x="1179" 
d="M954 1214l-372 261l-318 -222l699 -444q12 -9 12 -25v-413q0 -14 -12 -23l-365 -256q-4 -4 -16 -4q-13 0 -17 4l-389 273l31 45l375 -263l338 238v385l-721 461q-13 7 -13 20q0 15 13 25l366 256q17 10 33 0l389 -275z" />
    <glyph glyph-name="six" unicode="6" horiz-adv-x="1173" 
d="M969 870q12 -9 12 -22v-467q0 -14 -12 -23l-365 -256q-4 -4 -16 -4q-13 0 -17 4l-368 256q-10 7 -10 23v885q0 14 10 22l391 273l31 -48l-377 -262v-350l321 225q17 10 33 0zM588 158l338 235v441l-340 235l-338 -235v-439z" />
    <glyph glyph-name="seven" unicode="7" horiz-adv-x="1046" 
d="M860 1288q17 -13 10 -33l-360 -1017l139 -109l-35 -43l-153 121q-14 12 -8 31l360 1015l-334 234l-375 -260l-30 43l389 272q16 10 33 0z" />
    <glyph glyph-name="eight" unicode="8" horiz-adv-x="1173" 
d="M967 815q14 -11 14 -22v-412q0 -14 -12 -23l-367 -258q-4 -4 -16 -4q-11 0 -15 4l-366 256q-12 9 -12 25v412q0 13 12 22l330 213l-330 213q-12 6 -12 23q0 16 10 24l368 256q16 10 33 0l365 -256q12 -9 12 -24q0 -16 -14 -23l-330 -213zM270 1266l318 -203l315 203
l-315 223zM926 393v385l-338 217l-340 -217v-385l338 -235z" />
    <glyph glyph-name="nine" unicode="9" horiz-adv-x="1173" 
d="M969 1288q12 -9 12 -22v-885q0 -14 -12 -23l-389 -272l-33 45l379 262v350l-322 -223q-6 -6 -16 -6q-11 0 -17 6l-368 256q-10 7 -10 23v467q0 14 10 22l366 256q17 10 33 0zM926 811v438l-340 240l-338 -238v-440l340 -236z" />
    <glyph glyph-name="colon" unicode=":" horiz-adv-x="487" 
d="M358 80l-174 137l35 45l174 -137zM358 795l-174 137l35 45l174 -139z" />
    <glyph glyph-name="semicolon" unicode=";" horiz-adv-x="487" 
d="M358 795l-174 137l35 45l174 -139zM328 131v119h55v-131q0 -11 -10 -21l-154 -123l-35 45z" />
    <glyph glyph-name="less" unicode="&#x3c;" horiz-adv-x="794" 
d="M610 383l-28 -47l-394 250q-12 9 -12 22q0 16 12 25l394 252l28 -47l-354 -228z" />
    <glyph glyph-name="equal" unicode="=" horiz-adv-x="1470" 
d="M1251 281l-145 112h-727q-13 0 -19 6l-151 123l35 43l145 -114h727q7 0 14 -7l156 -122zM354 784q-9 0 -16 7l-154 118l35 45l146 -114h727q10 0 16 -6l154 -121l-35 -45l-146 116h-727z" />
    <glyph glyph-name="greater" unicode="&#x3e;" horiz-adv-x="794" 
d="M608 633q10 -7 10 -25q0 -14 -10 -22l-395 -250l-29 47l355 227l-355 228l29 47z" />
    <glyph glyph-name="question" unicode="?" horiz-adv-x="1071" 
d="M965 1290q12 -9 12 -22q0 -18 -14 -25l-355 -225v-383l144 -113l-35 -45l-152 123q-12 12 -12 23v411q0 12 14 23l332 213l-317 221l-375 -262l-31 45l389 272q17 10 33 0zM717 84l-174 137l35 45l174 -139z" />
    <glyph glyph-name="at" unicode="@" horiz-adv-x="1527" 
d="M1323 1174q12 -9 12 -23v-643q0 -14 -12 -23l-129 -92q-18 -14 -35 0l-98 78q-12 12 -12 23v77l-267 -186q-6 -6 -16 -6t-16 6l-314 217q-12 9 -12 25v399q0 14 12 23l312 217q16 10 32 0l314 -217q12 -9 12 -25v-373v-143l72 -57l104 71v617l-518 354l-516 -354v-617
l516 -364l123 88l33 -43l-140 -101q-4 -4 -16 -4t-16 4l-545 383q-10 7 -10 23v643q0 14 12 23l543 374q16 10 32 0zM1049 639v371l-285 200l-285 -200v-371l287 -199z" />
    <glyph glyph-name="A" unicode="A" horiz-adv-x="1218" 
d="M981 848v-606l143 -113l-34 -43l-154 123q-10 10 -10 18v101l-322 -226q-4 -4 -16 -4q-13 0 -17 4l-368 258q-10 8 -10 23v467q0 14 10 22l368 256q15 9 31 0l367 -256q12 -9 12 -24zM926 395v439l-338 237l-340 -235v-441l340 -235z" />
    <glyph glyph-name="B" unicode="B" horiz-adv-x="1198" 
d="M993 870q13 -10 13 -22v-467q0 -13 -13 -23l-366 -256q-6 -6 -17 -6q-8 0 -14 6l-369 256q-12 9 -12 23v1024l-141 113l32 43l154 -121q10 -10 10 -23v-516l324 225q16 9 31 0zM610 158l338 235v441l-340 235l-338 -235v-439z" />
    <glyph glyph-name="C" unicode="C" horiz-adv-x="1144" 
d="M938 823l-350 246l-340 -235v-439l340 -237l350 243l31 -43l-365 -256q-6 -6 -16 -6q-11 0 -17 6l-368 256q-10 7 -10 23v467q0 14 10 22l368 256q15 9 31 0l367 -256z" />
    <glyph glyph-name="D" unicode="D" horiz-adv-x="1218" 
d="M981 1417v-1175l143 -115l-34 -41l-154 121q-10 10 -10 20v101l-322 -226q-6 -6 -16 -6q-11 0 -17 6l-368 256q-10 7 -10 23v467q0 14 10 22l366 256q17 10 33 0l324 -227v506l-142 113l33 43l152 -121q12 -12 12 -23zM926 393v441l-340 235l-338 -235v-439l340 -237z
" />
    <glyph glyph-name="E" unicode="E" horiz-adv-x="1157" 
d="M969 870q12 -9 12 -22q0 -18 -14 -25l-697 -442l318 -223l350 243l31 -43l-365 -256q-6 -6 -16 -6q-11 0 -17 6l-368 256q-10 7 -10 23v467q0 14 10 22l368 256q15 9 31 0zM248 432l655 416l-315 221l-340 -235v-402z" />
    <glyph glyph-name="F" unicode="F" horiz-adv-x="1171" 
d="M614 1126q16 9 31 0l391 -272l-32 -45l-375 260l-338 -235v-400l346 238l33 -43l-379 -262v-543l143 -113l-35 -43l-151 119q-12 12 -12 23v1177l-142 113l33 43l154 -121q10 -10 10 -23v-98z" />
    <glyph glyph-name="G" unicode="G" horiz-adv-x="1183" 
d="M991 856v-895q0 -11 -12 -20l-365 -256q-4 -4 -16 -4t-16 4l-389 272l30 45l375 -262l338 237v349l-322 -224q-6 -6 -16 -6t-16 6l-367 256q-12 9 -12 23v469q0 21 16 27l361 249q17 10 30 2l369 -247q12 -9 12 -25zM598 158l338 235v449l-340 227l-336 -233v-443z" />
    <glyph glyph-name="H" unicode="H" horiz-adv-x="1261" 
d="M1026 852v-610l141 -113l-34 -43l-152 121q-10 10 -10 20v609l-338 233l-342 -235v-592l143 -115l-35 -41l-151 121q-12 12 -12 20v1180l-142 111l35 43l152 -121q10 -10 10 -23v-516l327 225q16 10 29 2l367 -254q12 -9 12 -22z" />
    <glyph glyph-name="I" unicode="I" horiz-adv-x="548" 
d="M291 999v-757l143 -113l-35 -43l-151 121q-12 12 -12 20v758l-142 115l33 43l154 -121q10 -10 10 -23zM270 1380l-174 138l33 43l174 -138z" />
    <glyph glyph-name="J" unicode="J" horiz-adv-x="520" 
d="M307 1022q10 -10 10 -23v-1036q0 -14 -10 -22l-391 -273l-31 45l377 264v1008l-143 115l35 43zM295 1380l-176 138l35 43l174 -138z" />
    <glyph glyph-name="K" unicode="K" horiz-adv-x="1261" 
d="M1026 852v-610l141 -113l-34 -43l-152 121q-10 10 -10 20v609l-338 233l-342 -235v-592l143 -115l-35 -41l-151 121q-12 12 -12 20v1180l-142 111l35 43l152 -121q10 -10 10 -23v-516l704 488l31 -48l-344 -237l332 -230q12 -9 12 -22z" />
    <glyph glyph-name="L" unicode="L" horiz-adv-x="548" 
d="M291 1417v-1175l143 -113l-35 -43l-151 121q-12 12 -12 20v1180l-142 111l33 43l154 -121q10 -10 10 -23z" />
    <glyph glyph-name="M" unicode="M" horiz-adv-x="1982" 
d="M1745 852v-610l143 -113l-37 -43l-151 121q-10 10 -10 20v609l-338 233l-326 -233v-594l141 -113l-34 -43l-152 121q-10 10 -10 20v609l-338 233l-342 -233v-594l143 -115l-35 -41l-151 121q-12 12 -12 20v760l-142 113l33 43l154 -121q10 -10 10 -23v-98l327 225
q16 10 29 2l350 -243l338 241q17 10 31 2l365 -254q14 -11 14 -22z" />
    <glyph glyph-name="N" unicode="N" horiz-adv-x="1261" 
d="M1026 850v-608l141 -115l-34 -41l-152 121q-10 10 -10 20v609l-338 233l-342 -235v-592l143 -115l-35 -41l-151 121q-12 12 -12 20v760l-142 113l33 43l154 -121q10 -10 10 -23v-98l327 225q14 9 29 0l367 -252q12 -9 12 -24z" />
    <glyph glyph-name="O" unicode="O" horiz-adv-x="1173" 
d="M969 872q12 -9 12 -22v-467q0 -14 -12 -23l-365 -258q-6 -6 -16 -6q-11 0 -17 6l-368 256q-10 7 -10 23v467q0 14 10 22l366 256q17 10 33 0zM926 397v439l-340 233l-338 -235v-439l340 -237z" />
    <glyph glyph-name="P" unicode="P" horiz-adv-x="1198" 
d="M1001 872q13 -10 13 -24v-467q0 -13 -13 -23l-368 -256q-6 -6 -17 -6q-8 0 -14 6l-323 226v-504l143 -113l-35 -43l-151 119q-13 13 -13 23v1177l-141 113l35 45l151 -123q11 -11 11 -21v-102l325 229q16 9 31 0zM956 395v439l-338 235l-339 -235v-441l337 -235z" />
    <glyph glyph-name="Q" unicode="Q" horiz-adv-x="1177" 
d="M981 848v-1024l143 -113l-34 -43l-154 119q-10 10 -10 23v518l-322 -226q-6 -6 -16 -6q-11 0 -17 6l-368 256q-10 7 -10 23v467q0 16 10 24l368 256q15 9 31 0l367 -258q12 -9 12 -22zM588 158l338 235v441l-340 235l-338 -235v-439z" />
    <glyph glyph-name="R" unicode="R" horiz-adv-x="1173" 
d="M618 1128q14 9 29 0l391 -262l-32 -47l-373 250l-342 -233v-594l143 -113l-35 -43l-151 121q-12 12 -12 20v760l-142 113l35 45l152 -123q10 -10 10 -23v-98z" />
    <glyph glyph-name="S" unicode="S" horiz-adv-x="1150" 
d="M942 811l-373 258l-317 -219l698 -447q13 -7 13 -22q0 -13 -13 -23l-364 -256q-4 -4 -17 -4q-12 0 -16 4l-389 273l31 43l374 -260l316 221l-699 446q-12 6 -12 23q0 15 12 24l367 256q16 10 33 0l389 -274z" />
    <glyph glyph-name="T" unicode="T" horiz-adv-x="1077" 
d="M578 158l372 260l33 -43l-389 -273q-6 -6 -16 -6q-9 0 -15 6l-368 256q-13 10 -13 23v1026l-141 111l33 43l153 -121q11 -11 11 -23v-518l331 231l33 -47l-364 -249v-439z" />
    <glyph glyph-name="U" unicode="U" horiz-adv-x="1263" 
d="M1026 999v-757l143 -113l-36 -43l-152 121q-10 10 -10 20v99l-326 -224q-6 -6 -16 -6q-7 0 -13 6l-366 244q-14 10 -14 25v616l-142 113l33 45l154 -123q10 -10 10 -21v-616l338 -227l342 235v594l-142 113l35 45l152 -123q10 -10 10 -23z" />
    <glyph glyph-name="V" unicode="V" horiz-adv-x="1218" 
d="M864 1145l152 -123q10 -10 10 -21v-624q0 -16 -12 -25l-369 -250q-6 -6 -16 -6q-7 0 -13 6l-366 244q-14 10 -14 25v616l-142 113l33 45l154 -123q10 -10 10 -21v-616l338 -227l342 231v598l-142 113z" />
    <glyph glyph-name="W" unicode="W" horiz-adv-x="1982" 
d="M1745 999v-757l143 -113l-35 -43l-153 121q-10 10 -10 20v99l-324 -224q-6 -6 -16 -6q-11 0 -17 6l-350 242l-338 -242q-6 -6 -16 -6q-7 0 -13 6l-366 256q-14 10 -14 23v606l-142 113l33 45l154 -123q10 -10 10 -21v-608l338 -235l327 233v596l-143 113l35 45l151 -123
q11 -11 11 -23v-608l340 -233l340 235v594l-142 113l33 45l154 -123q10 -10 10 -23z" />
    <glyph glyph-name="X" unicode="X" horiz-adv-x="1261" 
d="M1026 381v-139l141 -113l-34 -43l-154 121q-10 10 -10 20v138l-338 217l-340 -217v-123l143 -113l-35 -43l-151 121q-12 12 -12 20v154q0 11 14 22l330 211l-330 211q-14 11 -14 23v139l-142 113l33 45l154 -123q10 -10 10 -23v-135l340 -217l338 217v123l-142 113l35 45
l152 -123q12 -12 12 -21v-153q0 -12 -14 -23l-330 -211l330 -211q14 -11 14 -22z" />
    <glyph glyph-name="Y" unicode="Y" horiz-adv-x="1218" 
d="M862 1143l152 -121q12 -12 12 -23v-1038q0 -11 -12 -20l-367 -256q-4 -4 -16 -4q-11 0 -15 4l-391 272l33 45l373 -262l338 237v351l-322 -226q-6 -6 -16 -6q-9 0 -15 6l-368 254q-12 9 -12 23v608l-142 113l33 45l154 -123q10 -10 10 -21v-610l340 -233l338 235v592
l-142 115z" />
    <glyph glyph-name="Z" unicode="Z" horiz-adv-x="1161" 
d="M954 418l31 -43l-387 -273q-6 -6 -16 -6q-11 0 -17 6l-366 256q-13 10 -13 23q0 15 13 22l698 447l-315 219l-375 -258l-31 43l389 274q17 10 33 0l365 -256q12 -9 12 -24q0 -17 -12 -23l-699 -446l318 -221z" />
    <glyph glyph-name="bracketleft" unicode="[" horiz-adv-x="481" 
d="M193 1763q9 9 18 9h176v-54h-147v-1788h147v-55h-176q-12 0 -19.5 7.5t-7.5 19.5v1845q0 7 9 16z" />
    <glyph glyph-name="backslash" unicode="\" horiz-adv-x="1060" 
d="M838 78l-764 1454l49 27l762 -1455z" />
    <glyph glyph-name="bracketright" unicode="]" horiz-adv-x="481" 
d="M270 1772q10 0 19 -9q8 -8 8 -16v-1845q0 -12 -7.5 -19.5t-19.5 -7.5h-176v55h148v1788h-148v54h176z" />
    <glyph glyph-name="asciicircum" unicode="^" horiz-adv-x="735" 
d="M367 1489l-152 -105l-31 46l168 116q16 9 31 0l168 -116l-31 -46z" />
    <glyph glyph-name="underscore" unicode="_" horiz-adv-x="1159" 
d="M184 90v55h791v-55h-791z" />
    <glyph glyph-name="grave" unicode="`" horiz-adv-x="577" 
d="M358 1380l-174 138l35 45l174 -140z" />
    <glyph glyph-name="a" unicode="a" horiz-adv-x="1218" 
d="M981 848v-606l143 -113l-34 -43l-154 123q-10 10 -10 18v101l-322 -226q-4 -4 -16 -4q-13 0 -17 4l-368 258q-10 8 -10 23v467q0 14 10 22l368 256q15 9 31 0l367 -256q12 -9 12 -24zM926 395v439l-338 237l-340 -235v-441l340 -235z" />
    <glyph glyph-name="b" unicode="b" horiz-adv-x="1198" 
d="M993 870q13 -10 13 -22v-467q0 -13 -13 -23l-366 -256q-6 -6 -17 -6q-8 0 -14 6l-369 256q-12 9 -12 23v1024l-141 113l32 43l154 -121q10 -10 10 -23v-516l324 225q16 9 31 0zM610 158l338 235v441l-340 235l-338 -235v-439z" />
    <glyph glyph-name="c" unicode="c" horiz-adv-x="1144" 
d="M938 823l-350 246l-340 -235v-439l340 -237l350 243l31 -43l-365 -256q-6 -6 -16 -6q-11 0 -17 6l-368 256q-10 7 -10 23v467q0 14 10 22l368 256q15 9 31 0l367 -256z" />
    <glyph glyph-name="d" unicode="d" horiz-adv-x="1218" 
d="M981 1417v-1175l143 -115l-34 -41l-154 121q-10 10 -10 20v101l-322 -226q-6 -6 -16 -6q-11 0 -17 6l-368 256q-10 7 -10 23v467q0 14 10 22l366 256q17 10 33 0l324 -227v506l-142 113l33 43l152 -121q12 -12 12 -23zM926 393v441l-340 235l-338 -235v-439l340 -237z
" />
    <glyph glyph-name="e" unicode="e" horiz-adv-x="1157" 
d="M969 870q12 -9 12 -22q0 -18 -14 -25l-697 -442l318 -223l350 243l31 -43l-365 -256q-6 -6 -16 -6q-11 0 -17 6l-368 256q-10 7 -10 23v467q0 14 10 22l368 256q15 9 31 0zM248 432l655 416l-315 221l-340 -235v-402z" />
    <glyph glyph-name="f" unicode="f" horiz-adv-x="1171" 
d="M614 1126q16 9 31 0l391 -272l-32 -45l-375 260l-338 -235v-400l346 238l33 -43l-379 -262v-543l143 -113l-35 -43l-151 119q-12 12 -12 23v1177l-142 113l33 43l154 -121q10 -10 10 -23v-98z" />
    <glyph glyph-name="g" unicode="g" horiz-adv-x="1183" 
d="M991 856v-895q0 -11 -12 -20l-365 -256q-4 -4 -16 -4t-16 4l-389 272l30 45l375 -262l338 237v349l-322 -224q-6 -6 -16 -6t-16 6l-367 256q-12 9 -12 23v469q0 21 16 27l361 249q17 10 30 2l369 -247q12 -9 12 -25zM598 158l338 235v449l-340 227l-336 -233v-443z" />
    <glyph glyph-name="h" unicode="h" horiz-adv-x="1261" 
d="M1026 852v-610l141 -113l-34 -43l-152 121q-10 10 -10 20v609l-338 233l-342 -235v-592l143 -115l-35 -41l-151 121q-12 12 -12 20v1180l-142 111l35 43l152 -121q10 -10 10 -23v-516l327 225q16 10 29 2l367 -254q12 -9 12 -22z" />
    <glyph glyph-name="i" unicode="i" horiz-adv-x="548" 
d="M291 999v-757l143 -113l-35 -43l-151 121q-12 12 -12 20v758l-142 115l33 43l154 -121q10 -10 10 -23zM270 1380l-174 138l33 43l174 -138z" />
    <glyph glyph-name="j" unicode="j" horiz-adv-x="520" 
d="M307 1022q10 -10 10 -23v-1036q0 -14 -10 -22l-391 -273l-31 45l377 264v1008l-143 115l35 43zM295 1380l-176 138l35 43l174 -138z" />
    <glyph glyph-name="k" unicode="k" horiz-adv-x="1261" 
d="M1026 852v-610l141 -113l-34 -43l-152 121q-10 10 -10 20v609l-338 233l-342 -235v-592l143 -115l-35 -41l-151 121q-12 12 -12 20v1180l-142 111l35 43l152 -121q10 -10 10 -23v-516l704 488l31 -48l-344 -237l332 -230q12 -9 12 -22z" />
    <glyph glyph-name="l" unicode="l" horiz-adv-x="548" 
d="M291 1417v-1175l143 -113l-35 -43l-151 121q-12 12 -12 20v1180l-142 111l33 43l154 -121q10 -10 10 -23z" />
    <glyph glyph-name="m" unicode="m" horiz-adv-x="1982" 
d="M1745 852v-610l143 -113l-37 -43l-151 121q-10 10 -10 20v609l-338 233l-326 -233v-594l141 -113l-34 -43l-152 121q-10 10 -10 20v609l-338 233l-342 -233v-594l143 -115l-35 -41l-151 121q-12 12 -12 20v760l-142 113l33 43l154 -121q10 -10 10 -23v-98l327 225
q16 10 29 2l350 -243l338 241q17 10 31 2l365 -254q14 -11 14 -22z" />
    <glyph glyph-name="n" unicode="n" horiz-adv-x="1261" 
d="M1026 850v-608l141 -115l-34 -41l-152 121q-10 10 -10 20v609l-338 233l-342 -235v-592l143 -115l-35 -41l-151 121q-12 12 -12 20v760l-142 113l33 43l154 -121q10 -10 10 -23v-98l327 225q14 9 29 0l367 -252q12 -9 12 -24z" />
    <glyph glyph-name="o" unicode="o" horiz-adv-x="1173" 
d="M969 872q12 -9 12 -22v-467q0 -14 -12 -23l-365 -258q-6 -6 -16 -6q-11 0 -17 6l-368 256q-10 7 -10 23v467q0 14 10 22l366 256q17 10 33 0zM926 397v439l-340 233l-338 -235v-439l340 -237z" />
    <glyph glyph-name="p" unicode="p" horiz-adv-x="1198" 
d="M1001 872q13 -10 13 -24v-467q0 -13 -13 -23l-368 -256q-6 -6 -17 -6q-8 0 -14 6l-323 226v-504l143 -113l-35 -43l-151 119q-13 13 -13 23v1177l-141 113l35 45l151 -123q11 -11 11 -21v-102l325 229q16 9 31 0zM956 395v439l-338 235l-339 -235v-441l337 -235z" />
    <glyph glyph-name="q" unicode="q" horiz-adv-x="1177" 
d="M981 848v-1024l143 -113l-34 -43l-154 119q-10 10 -10 23v518l-322 -226q-6 -6 -16 -6q-11 0 -17 6l-368 256q-10 7 -10 23v467q0 16 10 24l368 256q15 9 31 0l367 -258q12 -9 12 -22zM588 158l338 235v441l-340 235l-338 -235v-439z" />
    <glyph glyph-name="r" unicode="r" horiz-adv-x="1173" 
d="M618 1128q14 9 29 0l391 -262l-32 -47l-373 250l-342 -233v-594l143 -113l-35 -43l-151 121q-12 12 -12 20v760l-142 113l35 45l152 -123q10 -10 10 -23v-98z" />
    <glyph glyph-name="s" unicode="s" horiz-adv-x="1150" 
d="M942 811l-373 258l-317 -219l698 -447q13 -7 13 -22q0 -13 -13 -23l-364 -256q-4 -4 -17 -4q-12 0 -16 4l-389 273l31 43l374 -260l316 221l-699 446q-12 6 -12 23q0 15 12 24l367 256q16 10 33 0l389 -274z" />
    <glyph glyph-name="t" unicode="t" horiz-adv-x="1110" 
d="M610 158l373 260l33 -43l-389 -273q-6 -6 -17 -6q-8 0 -14 6l-369 256q-12 9 -12 23v1026l-141 111l32 43l154 -121q10 -10 10 -23v-518l332 231l33 -47l-365 -249v-439z" />
    <glyph glyph-name="u" unicode="u" horiz-adv-x="1263" 
d="M1026 999v-757l143 -113l-36 -43l-152 121q-10 10 -10 20v99l-326 -224q-6 -6 -16 -6q-7 0 -13 6l-366 244q-14 10 -14 25v616l-142 113l33 45l154 -123q10 -10 10 -21v-616l338 -227l342 235v594l-142 113l35 45l152 -123q10 -10 10 -23z" />
    <glyph glyph-name="v" unicode="v" horiz-adv-x="1218" 
d="M864 1145l152 -123q10 -10 10 -21v-624q0 -16 -12 -25l-369 -250q-6 -6 -16 -6q-7 0 -13 6l-366 244q-14 10 -14 25v616l-142 113l33 45l154 -123q10 -10 10 -21v-616l338 -227l342 231v598l-142 113z" />
    <glyph glyph-name="w" unicode="w" horiz-adv-x="1982" 
d="M1745 999v-757l143 -113l-35 -43l-153 121q-10 10 -10 20v99l-324 -224q-6 -6 -16 -6q-11 0 -17 6l-350 242l-338 -242q-6 -6 -16 -6q-7 0 -13 6l-366 256q-14 10 -14 23v606l-142 113l33 45l154 -123q10 -10 10 -21v-608l338 -235l327 233v596l-143 113l35 45l151 -123
q11 -11 11 -23v-608l340 -233l340 235v594l-142 113l33 45l154 -123q10 -10 10 -23z" />
    <glyph glyph-name="x" unicode="x" horiz-adv-x="1261" 
d="M1026 381v-139l141 -113l-34 -43l-154 121q-10 10 -10 20v138l-338 217l-340 -217v-123l143 -113l-35 -43l-151 121q-12 12 -12 20v154q0 11 14 22l330 211l-330 211q-14 11 -14 23v139l-142 113l33 45l154 -123q10 -10 10 -23v-135l340 -217l338 217v123l-142 113l35 45
l152 -123q12 -12 12 -21v-153q0 -12 -14 -23l-330 -211l330 -211q14 -11 14 -22z" />
    <glyph glyph-name="y" unicode="y" horiz-adv-x="1218" 
d="M862 1143l152 -121q12 -12 12 -23v-1038q0 -11 -12 -20l-367 -256q-4 -4 -16 -4q-11 0 -15 4l-391 272l33 45l373 -262l338 237v351l-322 -226q-6 -6 -16 -6q-9 0 -15 6l-368 254q-12 9 -12 23v608l-142 113l33 45l154 -123q10 -10 10 -21v-610l340 -233l338 235v592
l-142 115z" />
    <glyph glyph-name="z" unicode="z" horiz-adv-x="1161" 
d="M954 418l31 -43l-387 -273q-6 -6 -16 -6q-11 0 -17 6l-366 256q-13 10 -13 23q0 15 13 22l698 447l-315 219l-375 -258l-31 43l389 274q17 10 33 0l365 -256q12 -9 12 -24q0 -17 -12 -23l-699 -446l318 -221z" />
    <glyph glyph-name="braceleft" unicode="{" horiz-adv-x="581" 
d="M344 692v-672l143 -112l-36 -43l-150 119q-14 7 -14 22v678l-97 123q-14 17 0 35l97 123v677q0 9 12 21l152 121l34 -43l-141 -113v-672q0 -12 -6 -18l-90 -115l90 -112q6 -6 6 -19z" />
    <glyph glyph-name="bar" unicode="|" horiz-adv-x="423" 
d="M184 -354v1904h56v-1904h-56z" />
    <glyph glyph-name="braceright" unicode="}" horiz-adv-x="579" 
d="M293 965l96 -125q13 -17 0 -33l-96 -123v-678q0 -17 -14 -24l-152 -117l-33 43l144 112v672q0 13 6 19l90 112l-90 115q-6 6 -6 18v672l-142 113l33 43l152 -121q12 -12 12 -21v-677z" />
    <glyph glyph-name="asciitilde" unicode="~" horiz-adv-x="874" 
d="M367 627l-152 -103l-31 45l166 115q16 9 31 0l129 -84l149 98l31 -45l-166 -114q-15 -9 -30 0z" />
    <glyph glyph-name="uni007F" horiz-adv-x="819" 
 />
    <glyph glyph-name="uni0080" 
 />
    <glyph glyph-name="uni0081" 
 />
    <glyph glyph-name="uni0082" 
 />
    <glyph glyph-name="uni0083" 
 />
    <glyph glyph-name="uni0084" 
 />
    <glyph glyph-name="uni0085" unicode="&#x85;" 
 />
    <glyph glyph-name="uni0086" 
 />
    <glyph glyph-name="uni0087" 
 />
    <glyph glyph-name="uni0088" 
 />
    <glyph glyph-name="uni0089" 
 />
    <glyph glyph-name="uni008A" 
 />
    <glyph glyph-name="uni008B" 
 />
    <glyph glyph-name="uni008C" 
 />
    <glyph glyph-name="uni008D" 
 />
    <glyph glyph-name="uni008E" 
 />
    <glyph glyph-name="uni008F" 
 />
    <glyph glyph-name="uni0090" 
 />
    <glyph glyph-name="uni0091" 
 />
    <glyph glyph-name="uni0092" 
 />
    <glyph glyph-name="uni0093" 
 />
    <glyph glyph-name="uni0094" 
 />
    <glyph glyph-name="uni0095" 
 />
    <glyph glyph-name="uni0096" 
 />
    <glyph glyph-name="uni0097" 
 />
    <glyph glyph-name="uni0098" 
 />
    <glyph glyph-name="uni0099" 
 />
    <glyph glyph-name="uni009A" 
 />
    <glyph glyph-name="uni009B" 
 />
    <glyph glyph-name="uni009C" 
 />
    <glyph glyph-name="uni009D" 
 />
    <glyph glyph-name="uni009E" 
 />
    <glyph glyph-name="uni009F" 
 />
    <glyph glyph-name="uni00A0" unicode="&#xa0;" horiz-adv-x="819" 
 />
    <glyph glyph-name="exclamdown" unicode="&#xa1;" horiz-adv-x="708" 
d="M381 608v-784l143 -111l-35 -45l-153 121q-10 10 -10 23v782l-142 113l35 43l152 -119q10 -10 10 -23zM358 963l-174 137l35 43l174 -137z" />
    <glyph glyph-name="cent" unicode="&#xa2;" horiz-adv-x="1060" 
d="M854 700l-322 226l-284 -201v-371l287 -200l319 223l31 -45l-324 -226v-161h-55v161l-301 211q-12 6 -12 23v399q0 17 12 23l301 211v162h55v-162l326 -228z" />
    <glyph glyph-name="sterling" unicode="&#xa3;" horiz-adv-x="1306" 
d="M727 1067l-340 -236v-188h367v-55h-367v-441h735v-55h-762q-12 0 -20 8.5t-8 20.5v467h-148v55h148v203q0 16 12 22l367 256q15 9 30 0l392 -272l-33 -45z" />
    <glyph glyph-name="currency" unicode="&#xa4;" 
 />
    <glyph glyph-name="yen" unicode="&#xa5;" horiz-adv-x="1179" 
d="M995 1094l-379 -263v-75h256v-56h-256v-170h256v-55h-256v-383h-55v383h-256v55h256v170h-256v56h256v75l-377 263l33 45l373 -260l373 260z" />
    <glyph glyph-name="brokenbar" unicode="&#xa6;" 
 />
    <glyph glyph-name="section" unicode="&#xa7;" 
 />
    <glyph glyph-name="dieresis" unicode="&#xa8;" horiz-adv-x="686" 
d="M184 1391v159h56v-159h-56zM446 1391v159h56v-159h-56z" />
    <glyph glyph-name="copyright" unicode="&#xa9;" horiz-adv-x="1527" 
d="M1085 985l-321 225l-287 -200v-371l289 -199l319 224l31 -46l-334 -233q-6 -6 -16 -6t-16 6l-314 217q-12 9 -12 25v399q0 14 12 23l312 217q16 10 32 0l338 -234zM1323 1174q12 -9 12 -23v-643q0 -14 -12 -23l-543 -383q-4 -4 -16 -4t-16 4l-545 383q-10 7 -10 23v643
q0 14 12 23l543 374q16 10 32 0zM764 160l518 362v617l-518 354l-516 -354v-617z" />
    <glyph glyph-name="ordfeminine" unicode="&#xaa;" 
 />
    <glyph glyph-name="guillemotleft" unicode="&#xab;" horiz-adv-x="874" 
d="M586 612l104 -151l-45 -31l-115 168q-9 16 0 31l115 168l45 -33zM246 612l104 -151l-47 -31l-115 168q-9 16 0 31l115 168l47 -33z" />
    <glyph glyph-name="logicalnot" unicode="&#xac;" 
 />
    <glyph glyph-name="uni00AD" unicode="&#xad;" horiz-adv-x="1445" 
d="M1092 643q12 0 16 -4l154 -121l-35 -45l-146 115h-725q-12 0 -18 6l-154 123l35 43l148 -117h725z" />
    <glyph glyph-name="registered" unicode="&#xae;" horiz-adv-x="1140" 
d="M936 1307q12 -9 12 -25v-414q0 -13 -12 -22l-350 -246q-6 -6 -17 -6q-10 0 -16 6l-350 246q-10 8 -10 22v414q0 16 12 25l348 239q16 10 33 0zM893 885v383l-324 223l-321 -223v-385l321 -228zM672 1239v-201h-72l80 -106l-47 -35l-101 141h-8v-133h-55v334h203z
M616 1092v92h-92v-92h92z" />
    <glyph glyph-name="macron" unicode="&#xaf;" 
 />
    <glyph glyph-name="degree" unicode="&#xb0;" horiz-adv-x="712" 
d="M518 1446q10 -8 10 -23v-172q0 -13 -10 -20l-145 -103q-6 -6 -17 -6q-8 0 -14 6l-147 103q-11 8 -11 20v172q0 13 13 23l145 100q15 9 29 0zM473 1266v143l-119 80l-114 -80v-143l114 -82z" />
    <glyph glyph-name="plusminus" unicode="&#xb1;" horiz-adv-x="1445" 
d="M326 90v55h790v-55h-790zM1092 643q12 0 16 -4l154 -121l-35 -45l-146 115h-329v-387h-56v387h-340q-12 0 -18 6l-154 123l35 43l148 -117h329v389h56v-389h340z" />
    <glyph glyph-name="uni00B2" unicode="&#xb2;" 
 />
    <glyph glyph-name="uni00B3" unicode="&#xb3;" 
 />
    <glyph glyph-name="acute" unicode="&#xb4;" horiz-adv-x="577" 
d="M219 1380l-35 43l174 140l35 -45z" />
    <glyph glyph-name="mu" unicode="&#xb5;" 
 />
    <glyph glyph-name="paragraph" unicode="&#xb6;" 
 />
    <glyph glyph-name="periodcentered" unicode="&#xb7;" 
 />
    <glyph glyph-name="cedilla" unicode="&#xb8;" horiz-adv-x="567" 
d="M328 131v119h55v-131q0 -11 -12 -23l-152 -121l-35 45z" />
    <glyph glyph-name="uni00B9" unicode="&#xb9;" 
 />
    <glyph glyph-name="ordmasculine" unicode="&#xba;" horiz-adv-x="710" 
d="M514 1595q12 -6 12 -22v-168q0 -17 -12 -23l-143 -102q-4 -4 -17 -4q-10 0 -14 4l-143 100q-13 6 -13 25v168q0 15 13 22l143 99q16 9 31 0zM471 1417v142l-117 79l-114 -79v-142l114 -80z" />
    <glyph glyph-name="guillemotright" unicode="&#xbb;" horiz-adv-x="874" 
d="M289 612l-105 152l45 33l115 -168q9 -15 0 -31l-115 -168l-45 31zM629 612l-105 152l47 33l115 -168q9 -15 0 -31l-115 -168l-47 31z" />
    <glyph glyph-name="onequarter" unicode="&#xbc;" 
 />
    <glyph glyph-name="onehalf" unicode="&#xbd;" 
 />
    <glyph glyph-name="threequarters" unicode="&#xbe;" 
 />
    <glyph glyph-name="questiondown" unicode="&#xbf;" horiz-adv-x="1165" 
d="M578 -258l372 260l31 -45l-387 -272q-4 -4 -16 -4q-13 0 -17 4l-364 256q-13 10 -13 22q0 19 13 25l354 225v383l-143 111l34 43l152 -119q12 -12 12 -23v-411q0 -16 -14 -23l-330 -211zM582 963l-174 137l34 43l174 -137z" />
    <glyph glyph-name="Agrave" unicode="&#xc0;" horiz-adv-x="1216" 
d="M979 852v-604l143 -113l-35 -43l-153 121q-10 7 -10 20v99l-322 -223q-10 -5 -16 -5q-7 0 -17 5l-366 256q-10 7 -10 20v467q0 18 10 25l366 253q14 7 17 7q2 0 16 -7l365 -256q12 -8 12 -22zM924 399v439l-338 235l-338 -235v-439l338 -235zM655 1380l-174 138l35 45
l174 -140z" />
    <glyph glyph-name="Aacute" unicode="&#xc1;" horiz-adv-x="1216" 
d="M979 852v-604l143 -113l-35 -43l-153 121q-10 7 -10 20v99l-322 -223q-10 -5 -16 -5q-7 0 -17 5l-366 256q-10 7 -10 20v467q0 18 10 25l366 253q14 7 17 7q2 0 16 -7l365 -256q12 -8 12 -22zM924 399v439l-338 235l-338 -235v-439l338 -235zM516 1380l-35 43l174 140
l35 -45z" />
    <glyph glyph-name="Acircumflex" unicode="&#xc2;" horiz-adv-x="1214" 
d="M979 846v-606l141 -111l-33 -43l-153 119q-10 7 -10 22v99l-322 -226q-8 -4 -16 -4q-9 0 -17 4l-364 256q-12 8 -12 23v467q0 14 12 22l364 256q8 4 17 4q6 0 14 -4l367 -256q12 -8 12 -22zM924 393v438l-338 236l-338 -236v-438l338 -235zM586 1487l-135 -107l-35 43
l153 121q6 6 17 6q10 0 16 -6l154 -121l-35 -43z" />
    <glyph glyph-name="Atilde" unicode="&#xc3;" horiz-adv-x="1214" 
d="M541 1491l-152 -105l-31 48l166 112q16 9 31 0l129 -88l150 105l30 -47l-166 -113q-15 -9 -30 0zM979 846v-606l141 -111l-33 -43l-153 119q-10 7 -10 22v99l-322 -226q-8 -4 -16 -4q-9 0 -17 4l-364 256q-12 8 -12 23v467q0 14 12 22l364 256q8 4 17 4q6 0 14 -4
l367 -256q12 -8 12 -22zM924 393v438l-338 236l-338 -236v-438l338 -235z" />
    <glyph glyph-name="Adieresis" unicode="&#xc4;" horiz-adv-x="1214" 
d="M979 852v-604l141 -113l-33 -43l-153 121q-10 7 -10 20v101l-322 -225q-14 -7 -16 -7q-3 0 -17 7l-364 256q-12 8 -12 22v465q0 14 12 22l364 256q10 5 17 5q4 0 14 -5l367 -256q12 -8 12 -22zM924 399v439l-338 235l-338 -235v-437l338 -237zM426 1391v159h55v-159h-55z
M688 1391v159h55v-159h-55z" />
    <glyph glyph-name="Aring" unicode="&#xc5;" horiz-adv-x="1214" 
d="M979 846v-606l141 -111l-35 -43l-151 119q-10 10 -10 22v99l-322 -224q-6 -6 -16 -6q-11 0 -17 6l-364 254q-12 6 -12 23v467q0 16 12 22l364 256q15 9 31 0l367 -256q12 -6 12 -22zM924 393v438l-338 236l-338 -236v-438l338 -235zM745 1595q11 -5 11 -22v-168
q0 -17 -11 -23l-143 -102q-4 -4 -16 -4q-13 0 -17 4l-143 100q-12 6 -12 25v168q0 16 12 22l143 99q16 9 31 0zM700 1417v142l-114 79l-117 -79v-142l117 -80z" />
    <glyph glyph-name="AE" unicode="&#xc6;" horiz-adv-x="1886" 
d="M1700 870q12 -9 12 -22q0 -17 -12 -23l-688 -452l307 -213l348 243l33 -45l-367 -256q-15 -9 -30 0l-324 228v-88l143 -111l-35 -45l-153 121q-10 10 -10 22v86l-322 -213q-4 -4 -16 -4q-11 0 -15 4l-366 256q-12 6 -12 23v467q0 16 12 22l364 256q17 10 33 0l350 -245
l351 245q15 9 30 0zM588 160l336 221v453l-338 235l-338 -235v-439zM979 418l655 430l-317 221l-338 -235v-416z" />
    <glyph glyph-name="Ccedilla" unicode="&#xc7;" horiz-adv-x="1142" 
d="M936 825l-350 246l-338 -235v-439l338 -237l350 246l31 -48l-353 -245v-86q0 -11 -12 -23l-151 -119l-35 43l143 111v74l-354 247q-12 6 -12 23v467q0 16 12 22l364 254q17 10 33 0l365 -256z" />
    <glyph glyph-name="Egrave" unicode="&#xc8;" horiz-adv-x="1153" 
d="M967 870q12 -9 12 -22q0 -17 -12 -23l-697 -444l316 -221l350 246l31 -46l-365 -256q-6 -6 -16 -6q-11 0 -17 6l-364 256q-12 6 -12 23v465q0 16 12 22l364 256q15 9 31 0zM248 432l653 418l-315 219l-338 -235v-402zM655 1380l-174 138l35 43l174 -138z" />
    <glyph glyph-name="Eacute" unicode="&#xc9;" horiz-adv-x="1153" 
d="M967 870q12 -9 12 -22q0 -17 -12 -23l-697 -444l316 -221l350 246l31 -46l-365 -256q-6 -6 -16 -6q-11 0 -17 6l-364 256q-12 6 -12 23v465q0 16 12 22l364 256q15 9 31 0zM248 432l653 418l-315 219l-338 -235v-402zM518 1380l-35 43l174 138l35 -43z" />
    <glyph glyph-name="Ecircumflex" unicode="&#xca;" horiz-adv-x="1153" 
d="M967 870q12 -8 12 -22q0 -15 -12 -23l-697 -444l316 -221l350 243l31 -45l-365 -254q-12 -6 -16 -6q-5 0 -17 6l-364 256q-12 8 -12 23v465q0 14 12 22l364 256q8 4 17 4q6 0 14 -4zM248 432l653 418l-315 221l-338 -237v-402zM586 1487l-135 -107l-35 43l153 121
q6 6 17 6q10 0 16 -6l154 -121l-35 -43z" />
    <glyph glyph-name="Edieresis" unicode="&#xcb;" horiz-adv-x="1153" 
d="M967 870q12 -8 12 -22q0 -15 -12 -23l-697 -444l316 -221l350 243l31 -45l-365 -254q-12 -6 -16 -6q-5 0 -17 6l-364 256q-12 8 -12 23v465q0 14 12 22l364 256q8 4 17 4q6 0 14 -4zM248 432l653 418l-315 221l-338 -237v-402zM426 1391v159h55v-159h-55zM688 1391v159
h55v-159h-55z" />
    <glyph glyph-name="Igrave" unicode="&#xcc;" horiz-adv-x="546" 
d="M291 1001v-755l141 -113l-33 -43l-153 121q-10 7 -10 20v758l-142 113l35 43l152 -121q10 -7 10 -23zM268 1380l-174 138l35 43l174 -138z" />
    <glyph glyph-name="Iacute" unicode="&#xcd;" horiz-adv-x="546" 
d="M291 1001v-755l143 -113l-35 -43l-153 121q-10 10 -10 20v758l-142 113l35 43l152 -121q10 -10 10 -23zM129 1380l-35 43l174 138l35 -43z" />
    <glyph glyph-name="Icircumflex" unicode="&#xce;" horiz-adv-x="546" 
d="M291 1001v-755l143 -113l-35 -43l-153 121q-10 10 -10 20v758l-142 113l35 43l152 -121q10 -10 10 -23zM248 1544q17 13 33 0l153 -121l-35 -43l-135 107l-135 -107l-35 43z" />
    <glyph glyph-name="Idieresis" unicode="&#xcf;" horiz-adv-x="546" 
d="M291 1001v-755l143 -113l-35 -43l-153 121q-10 10 -10 20v758l-142 113l35 43l152 -121q10 -10 10 -23zM102 1393v157h56v-157h-56zM365 1393v157h55v-157h-55z" />
    <glyph glyph-name="Eth" unicode="&#xd0;" horiz-adv-x="1171" 
d="M979 1268v-883q0 -19 -12 -25l-365 -254q-6 -6 -16 -6q-11 0 -17 6l-364 254q-12 6 -12 23v467q0 16 12 22l364 256q17 10 33 0l322 -225v350l-377 263l33 45l387 -271q12 -6 12 -22zM924 397v439l-338 237l-338 -237v-439l338 -235z" />
    <glyph glyph-name="Ntilde" unicode="&#xd1;" horiz-adv-x="1259" 
d="M545 1491l-152 -105l-31 48l166 112q16 9 31 0l129 -88l150 105l30 -47l-166 -113q-15 -9 -30 0zM1024 862v-616l141 -111l-32 -45l-154 121q-10 10 -10 22v615l-338 225l-340 -233v-594l143 -111l-35 -45l-153 121q-10 10 -10 22v758l-142 111l35 45l152 -121
q10 -10 10 -22v-99l325 225q16 9 31 0l365 -245q12 -6 12 -23z" />
    <glyph glyph-name="Ograve" unicode="&#xd2;" horiz-adv-x="1169" 
d="M967 874q12 -8 12 -22v-467q0 -15 -12 -23l-365 -253q-14 -7 -16 -7q-3 0 -17 7l-364 256q-12 8 -12 22v465q0 14 12 22l364 256q10 5 17 5q4 0 14 -5zM924 399v439l-338 235l-338 -235v-437l338 -237zM655 1380l-174 138l35 43l174 -138z" />
    <glyph glyph-name="Oacute" unicode="&#xd3;" horiz-adv-x="1169" 
d="M967 874q12 -8 12 -22v-467q0 -15 -12 -23l-365 -253q-14 -7 -16 -7q-3 0 -17 7l-364 256q-12 8 -12 22v465q0 14 12 22l364 256q10 5 17 5q4 0 14 -5zM924 399v439l-338 235l-338 -235v-437l338 -237zM516 1380l-35 43l174 138l35 -43z" />
    <glyph glyph-name="Ocircumflex" unicode="&#xd4;" horiz-adv-x="1169" 
d="M967 868q12 -8 12 -22v-467q0 -15 -12 -23l-365 -256q-8 -4 -16 -4q-9 0 -17 4l-364 256q-12 8 -12 23v467q0 14 12 22l364 256q8 4 17 4q6 0 14 -4zM924 393v438l-338 236l-338 -236v-438l338 -235zM586 1487l-135 -107l-35 43l153 121q6 6 17 6q10 0 16 -6l154 -121
l-35 -43z" />
    <glyph glyph-name="Otilde" unicode="&#xd5;" horiz-adv-x="1169" 
d="M541 1491l-152 -105l-31 48l166 112q16 9 31 0l129 -88l150 105l30 -47l-166 -113q-15 -9 -30 0zM967 868q12 -8 12 -22v-467q0 -15 -12 -23l-365 -256q-8 -4 -16 -4q-9 0 -17 4l-364 256q-12 8 -12 23v467q0 14 12 22l364 256q8 4 17 4q6 0 14 -4zM924 393v438l-338 236
l-338 -236v-438l338 -235z" />
    <glyph glyph-name="Odieresis" unicode="&#xd6;" horiz-adv-x="1169" 
d="M967 874q12 -8 12 -22v-467q0 -15 -12 -23l-365 -253q-14 -7 -16 -7q-3 0 -17 7l-364 256q-12 8 -12 22v465q0 14 12 22l364 256q10 5 17 5q4 0 14 -5zM924 399v439l-338 235l-338 -235v-437l338 -237zM426 1391v159h55v-159h-55zM688 1391v159h55v-159h-55z" />
    <glyph glyph-name="multiply" unicode="&#xd7;" horiz-adv-x="1181" 
d="M969 885l28 -49l-356 -226l356 -227l-28 -47l-377 239l-379 -239l-29 47l357 227l-357 226l29 49l379 -244z" />
    <glyph glyph-name="Oslash" unicode="&#xd8;" horiz-adv-x="1175" 
d="M942 1561l49 -27l-100 -191l78 -55q12 -6 12 -22v-881q0 -17 -12 -23l-365 -256q-4 -4 -16 -4q-13 0 -17 4l-241 168l-97 -184l-49 27l101 190l-80 55q-10 5 -10 23v881q0 17 10 22l366 256q15 9 31 0l242 -168zM250 399l61 -43l508 969l-231 164l-338 -238v-852z
M926 1251l-62 43l-508 -970l232 -162l338 235v854z" />
    <glyph glyph-name="Ugrave" unicode="&#xd9;" horiz-adv-x="1349" 
d="M791 1384l-175 140l33 43l176 -137zM1114 999v-757l141 -111l-34 -43l-152 119q-10 7 -10 22v99l-324 -224q-12 -6 -16 -6q-9 0 -17 4l-364 246q-12 8 -12 23v616l-142 113l35 43l152 -121q10 -7 10 -23v-614l338 -225l340 235v592l-141 113l32 43l154 -121q10 -7 10 -23
z" />
    <glyph glyph-name="Uacute" unicode="&#xda;" horiz-adv-x="1349" 
d="M649 1380l-33 43l175 138l32 -43zM1114 999v-757l141 -111l-34 -43l-152 119q-10 7 -10 22v99l-324 -224q-12 -6 -16 -6q-9 0 -17 4l-364 246q-12 8 -12 23v616l-142 113l35 43l152 -121q10 -7 10 -23v-614l338 -225l340 235v592l-141 113l32 43l154 -121q10 -7 10 -23z
" />
    <glyph glyph-name="Ucircumflex" unicode="&#xdb;" horiz-adv-x="1349" 
d="M721 1487l-137 -107l-33 43l151 121q6 6 19 6q10 0 16 -6l152 -121l-33 -43zM1114 999v-757l141 -111l-34 -43l-152 119q-10 7 -10 22v99l-324 -224q-12 -6 -16 -6q-9 0 -17 4l-364 246q-12 8 -12 23v616l-142 113l35 43l152 -121q10 -7 10 -23v-614l338 -225l340 235
v592l-141 113l32 43l154 -121q10 -7 10 -23z" />
    <glyph glyph-name="Udieresis" unicode="&#xdc;" horiz-adv-x="1349" 
d="M561 1391v159h55v-159h-55zM823 1391v159h56v-159h-56zM1114 242l141 -111l-34 -43l-152 119q-10 7 -10 22v99l-324 -224q-12 -6 -16 -6q-9 0 -17 4l-364 246q-12 8 -12 23v616l-142 113l35 43l152 -121q10 -7 10 -23v-614l338 -225l340 235v592l-141 113l32 43l154 -121
q10 -7 10 -23v-757z" />
    <glyph glyph-name="Yacute" unicode="&#xdd;" horiz-adv-x="1218" 
d="M559 1380l-33 43l174 138l33 -43zM862 1143l152 -121q12 -12 12 -23v-1038q0 -11 -12 -20l-367 -256q-4 -4 -16 -4q-11 0 -15 4l-391 272l33 45l373 -262l338 237v351l-322 -226q-6 -6 -16 -6q-9 0 -15 6l-368 254q-12 9 -12 23v608l-142 113l33 45l154 -123
q10 -10 10 -21v-610l340 -233l338 235v592l-142 115z" />
    <glyph glyph-name="Thorn" unicode="&#xde;" 
 />
    <glyph glyph-name="germandbls" unicode="&#xdf;" horiz-adv-x="1171" 
d="M967 819q12 -6 12 -24v-410q0 -19 -12 -25l-389 -270l-31 45l377 264v381l-353 228q-12 6 -12 24q0 17 12 23l332 213l-317 221l-338 -236v-1153h-55v1168q0 16 12 22l364 256q6 4 16.5 4t16.5 -4l365 -256q12 -9 12 -22q0 -17 -12 -23l-330 -213z" />
    <glyph glyph-name="agrave" unicode="&#xe0;" horiz-adv-x="1216" 
d="M979 852v-604l143 -113l-35 -43l-153 121q-10 7 -10 20v99l-322 -223q-10 -5 -16 -5q-7 0 -17 5l-366 256q-10 7 -10 20v467q0 18 10 25l366 253q14 7 17 7q2 0 16 -7l365 -256q12 -8 12 -22zM924 399v439l-338 235l-338 -235v-439l338 -235zM655 1380l-174 138l35 45
l174 -140z" />
    <glyph glyph-name="aacute" unicode="&#xe1;" horiz-adv-x="1216" 
d="M979 852v-604l143 -113l-35 -43l-153 121q-10 7 -10 20v99l-322 -223q-10 -5 -16 -5q-7 0 -17 5l-366 256q-10 7 -10 20v467q0 18 10 25l366 253q14 7 17 7q2 0 16 -7l365 -256q12 -8 12 -22zM924 399v439l-338 235l-338 -235v-439l338 -235zM516 1380l-35 43l174 140
l35 -45z" />
    <glyph glyph-name="acircumflex" unicode="&#xe2;" horiz-adv-x="1214" 
d="M979 846v-606l141 -111l-33 -43l-153 119q-10 7 -10 22v99l-322 -226q-8 -4 -16 -4q-9 0 -17 4l-364 256q-12 8 -12 23v467q0 14 12 22l364 256q8 4 17 4q6 0 14 -4l367 -256q12 -8 12 -22zM924 393v438l-338 236l-338 -236v-438l338 -235zM586 1487l-135 -107l-35 43
l153 121q6 6 17 6q10 0 16 -6l154 -121l-35 -43z" />
    <glyph glyph-name="atilde" unicode="&#xe3;" horiz-adv-x="1214" 
d="M541 1491l-152 -105l-31 48l166 112q16 9 31 0l129 -88l150 105l30 -47l-166 -113q-15 -9 -30 0zM979 846v-606l141 -111l-33 -43l-153 119q-10 7 -10 22v99l-322 -226q-8 -4 -16 -4q-9 0 -17 4l-364 256q-12 8 -12 23v467q0 14 12 22l364 256q8 4 17 4q6 0 14 -4
l367 -256q12 -8 12 -22zM924 393v438l-338 236l-338 -236v-438l338 -235z" />
    <glyph glyph-name="adieresis" unicode="&#xe4;" horiz-adv-x="1214" 
d="M979 852v-604l141 -113l-33 -43l-153 121q-10 7 -10 20v101l-322 -225q-14 -7 -16 -7q-3 0 -17 7l-364 256q-12 8 -12 22v465q0 14 12 22l364 256q10 5 17 5q4 0 14 -5l367 -256q12 -8 12 -22zM924 399v439l-338 235l-338 -235v-437l338 -237zM426 1391v159h55v-159h-55z
M688 1391v159h55v-159h-55z" />
    <glyph glyph-name="aring" unicode="&#xe5;" horiz-adv-x="1214" 
d="M979 846v-606l141 -111l-35 -43l-151 119q-10 10 -10 22v99l-322 -224q-6 -6 -16 -6q-11 0 -17 6l-364 254q-12 6 -12 23v467q0 16 12 22l364 256q15 9 31 0l367 -256q12 -6 12 -22zM924 393v438l-338 236l-338 -236v-438l338 -235zM745 1595q11 -5 11 -22v-168
q0 -17 -11 -23l-143 -102q-4 -4 -16 -4q-13 0 -17 4l-143 100q-12 6 -12 25v168q0 16 12 22l143 99q16 9 31 0zM700 1417v142l-114 79l-117 -79v-142l117 -80z" />
    <glyph glyph-name="ae" unicode="&#xe6;" horiz-adv-x="1886" 
d="M1700 870q12 -9 12 -22q0 -17 -12 -23l-688 -452l307 -213l348 243l33 -45l-367 -256q-15 -9 -30 0l-324 228v-88l143 -111l-35 -45l-153 121q-10 10 -10 22v86l-322 -213q-4 -4 -16 -4q-11 0 -15 4l-366 256q-12 6 -12 23v467q0 16 12 22l364 256q17 10 33 0l350 -245
l351 245q15 9 30 0zM588 160l336 221v453l-338 235l-338 -235v-439zM979 418l655 430l-317 221l-338 -235v-416z" />
    <glyph glyph-name="ccedilla" unicode="&#xe7;" horiz-adv-x="1134" 
d="M928 825l-350 246l-338 -235v-439l338 -237l350 246l30 -48l-352 -245v-86q0 -11 -12 -23l-152 -119l-34 43l143 111v74l-354 247q-13 6 -13 23v467q0 16 13 22l364 254q16 10 33 0l364 -256z" />
    <glyph glyph-name="egrave" unicode="&#xe8;" horiz-adv-x="1144" 
d="M958 870q13 -10 13 -22q0 -16 -13 -23l-696 -444l316 -221l350 246l30 -46l-364 -256q-6 -6 -16 -6q-11 0 -17 6l-364 256q-13 6 -13 23v465q0 16 13 22l364 256q15 9 31 0zM240 432l653 418l-315 219l-338 -235v-402zM647 1380l-174 138l35 43l174 -138z" />
    <glyph glyph-name="eacute" unicode="&#xe9;" horiz-adv-x="1144" 
d="M958 870q13 -10 13 -22q0 -16 -13 -23l-696 -444l316 -221l350 246l30 -46l-364 -256q-6 -6 -16 -6q-11 0 -17 6l-364 256q-13 6 -13 23v465q0 16 13 22l364 256q15 9 31 0zM240 432l653 418l-315 219l-338 -235v-402zM510 1380l-35 43l174 138l35 -43z" />
    <glyph glyph-name="ecircumflex" unicode="&#xea;" horiz-adv-x="1144" 
d="M958 870q13 -9 13 -22q0 -14 -13 -23l-696 -444l316 -221l350 243l30 -45l-364 -254q-12 -6 -16 -6q-5 0 -17 6l-364 256q-13 9 -13 23v465q0 13 13 22l364 256q8 4 17 4q6 0 14 -4zM240 432l653 418l-315 221l-338 -237v-402zM578 1487l-136 -107l-34 43l153 121
q6 6 17 6q10 0 16 -6l154 -121l-35 -43z" />
    <glyph glyph-name="edieresis" unicode="&#xeb;" horiz-adv-x="1153" 
d="M967 870q12 -8 12 -22q0 -15 -12 -23l-697 -444l316 -221l350 243l31 -45l-365 -254q-12 -6 -16 -6q-5 0 -17 6l-364 256q-12 8 -12 23v465q0 14 12 22l364 256q8 4 17 4q6 0 14 -4zM248 432l653 418l-315 221l-338 -237v-402zM426 1391v159h55v-159h-55zM688 1391v159
h55v-159h-55z" />
    <glyph glyph-name="igrave" unicode="&#xec;" horiz-adv-x="546" 
d="M291 1001v-755l141 -113l-33 -43l-153 121q-10 7 -10 20v758l-142 113l35 43l152 -121q10 -7 10 -23zM268 1380l-174 138l35 43l174 -138z" />
    <glyph glyph-name="iacute" unicode="&#xed;" horiz-adv-x="546" 
d="M291 1001v-755l143 -113l-35 -43l-153 121q-10 10 -10 20v758l-142 113l35 43l152 -121q10 -10 10 -23zM129 1380l-35 43l174 138l35 -43z" />
    <glyph glyph-name="icircumflex" unicode="&#xee;" horiz-adv-x="546" 
d="M291 1001v-755l143 -113l-35 -43l-153 121q-10 10 -10 20v758l-142 113l35 43l152 -121q10 -10 10 -23zM248 1544q17 13 33 0l153 -121l-35 -43l-135 107l-135 -107l-35 43z" />
    <glyph glyph-name="idieresis" unicode="&#xef;" horiz-adv-x="546" 
d="M291 1001v-755l143 -113l-35 -43l-153 121q-10 10 -10 20v758l-142 113l35 43l152 -121q10 -10 10 -23zM102 1393v157h56v-157h-56zM365 1393v157h55v-157h-55z" />
    <glyph glyph-name="eth" unicode="&#xf0;" horiz-adv-x="1171" 
d="M979 1268v-883q0 -19 -12 -25l-365 -254q-6 -6 -16 -6q-11 0 -17 6l-364 254q-12 6 -12 23v467q0 16 12 22l364 256q17 10 33 0l322 -225v350l-377 263l33 45l387 -271q12 -6 12 -22zM924 397v439l-338 237l-338 -237v-439l338 -235z" />
    <glyph glyph-name="ntilde" unicode="&#xf1;" horiz-adv-x="1259" 
d="M545 1491l-152 -105l-31 48l166 112q16 9 31 0l129 -88l150 105l30 -47l-166 -113q-15 -9 -30 0zM1024 862v-616l141 -111l-32 -45l-154 121q-10 10 -10 22v615l-338 225l-340 -233v-594l143 -111l-35 -45l-153 121q-10 10 -10 22v758l-142 111l35 45l152 -121
q10 -10 10 -22v-99l325 225q16 9 31 0l365 -245q12 -6 12 -23z" />
    <glyph glyph-name="ograve" unicode="&#xf2;" horiz-adv-x="1169" 
d="M967 874q12 -8 12 -22v-467q0 -15 -12 -23l-365 -253q-14 -7 -16 -7q-3 0 -17 7l-364 256q-12 8 -12 22v465q0 14 12 22l364 256q10 5 17 5q4 0 14 -5zM924 399v439l-338 235l-338 -235v-437l338 -237zM655 1380l-174 138l35 43l174 -138z" />
    <glyph glyph-name="oacute" unicode="&#xf3;" horiz-adv-x="1169" 
d="M967 874q12 -8 12 -22v-467q0 -15 -12 -23l-365 -253q-14 -7 -16 -7q-3 0 -17 7l-364 256q-12 8 -12 22v465q0 14 12 22l364 256q10 5 17 5q4 0 14 -5zM924 399v439l-338 235l-338 -235v-437l338 -237zM516 1380l-35 43l174 138l35 -43z" />
    <glyph glyph-name="ocircumflex" unicode="&#xf4;" horiz-adv-x="1169" 
d="M967 868q12 -8 12 -22v-467q0 -15 -12 -23l-365 -256q-8 -4 -16 -4q-9 0 -17 4l-364 256q-12 8 -12 23v467q0 14 12 22l364 256q8 4 17 4q6 0 14 -4zM924 393v438l-338 236l-338 -236v-438l338 -235zM586 1487l-135 -107l-35 43l153 121q6 6 17 6q10 0 16 -6l154 -121
l-35 -43z" />
    <glyph glyph-name="otilde" unicode="&#xf5;" horiz-adv-x="1169" 
d="M541 1491l-152 -105l-31 48l166 112q16 9 31 0l129 -88l150 105l30 -47l-166 -113q-15 -9 -30 0zM967 868q12 -8 12 -22v-467q0 -15 -12 -23l-365 -256q-8 -4 -16 -4q-9 0 -17 4l-364 256q-12 8 -12 23v467q0 14 12 22l364 256q8 4 17 4q6 0 14 -4zM924 393v438l-338 236
l-338 -236v-438l338 -235z" />
    <glyph glyph-name="odieresis" unicode="&#xf6;" horiz-adv-x="1169" 
d="M967 874q12 -8 12 -22v-467q0 -15 -12 -23l-365 -253q-14 -7 -16 -7q-3 0 -17 7l-364 256q-12 8 -12 22v465q0 14 12 22l364 256q10 5 17 5q4 0 14 -5zM924 399v439l-338 235l-338 -235v-437l338 -237zM426 1391v159h55v-159h-55zM688 1391v159h55v-159h-55z" />
    <glyph glyph-name="divide" unicode="&#xf7;" horiz-adv-x="1445" 
d="M791 170l-175 137l35 45l174 -137zM791 885l-175 137l35 45l174 -139zM1092 643q12 0 16 -4l154 -121l-35 -45l-146 115h-725q-12 0 -18 6l-154 123l35 43l148 -117h725z" />
    <glyph glyph-name="oslash" unicode="&#xf8;" horiz-adv-x="1155" 
d="M958 872q13 -6 13 -22v-465q0 -17 -13 -23l-364 -256q-6 -6 -16 -6q-11 0 -17 6l-168 117l-71 -133l-48 27l72 139l-149 104q-13 6 -13 23v467q0 16 13 22l364 256q16 10 33 0l154 -106l63 121l49 -25l-67 -129zM240 397l133 -92l348 668l-143 100l-338 -237v-439z
M915 397v439l-147 104l-350 -668l160 -110z" />
    <glyph glyph-name="ugrave" unicode="&#xf9;" horiz-adv-x="1349" 
d="M791 1384l-175 140l33 43l176 -137zM1114 999v-757l141 -111l-34 -43l-152 119q-10 7 -10 22v99l-324 -224q-12 -6 -16 -6q-9 0 -17 4l-364 246q-12 8 -12 23v616l-142 113l35 43l152 -121q10 -7 10 -23v-614l338 -225l340 235v592l-141 113l32 43l154 -121q10 -7 10 -23
z" />
    <glyph glyph-name="uacute" unicode="&#xfa;" horiz-adv-x="1349" 
d="M649 1380l-33 43l175 138l32 -43zM1114 999v-757l141 -111l-34 -43l-152 119q-10 7 -10 22v99l-324 -224q-12 -6 -16 -6q-9 0 -17 4l-364 246q-12 8 -12 23v616l-142 113l35 43l152 -121q10 -7 10 -23v-614l338 -225l340 235v592l-141 113l32 43l154 -121q10 -7 10 -23z
" />
    <glyph glyph-name="ucircumflex" unicode="&#xfb;" horiz-adv-x="1349" 
d="M721 1487l-137 -107l-33 43l151 121q6 6 19 6q10 0 16 -6l152 -121l-33 -43zM1114 999v-757l141 -111l-34 -43l-152 119q-10 7 -10 22v99l-324 -224q-12 -6 -16 -6q-9 0 -17 4l-364 246q-12 8 -12 23v616l-142 113l35 43l152 -121q10 -7 10 -23v-614l338 -225l340 235
v592l-141 113l32 43l154 -121q10 -7 10 -23z" />
    <glyph glyph-name="udieresis" unicode="&#xfc;" horiz-adv-x="1349" 
d="M561 1391v159h55v-159h-55zM823 1391v159h56v-159h-56zM1114 242l141 -111l-34 -43l-152 119q-10 7 -10 22v99l-324 -224q-12 -6 -16 -6q-9 0 -17 4l-364 246q-12 8 -12 23v616l-142 113l35 43l152 -121q10 -7 10 -23v-614l338 -225l340 235v592l-141 113l32 43l154 -121
q10 -7 10 -23v-757z" />
    <glyph glyph-name="yacute" unicode="&#xfd;" horiz-adv-x="1218" 
d="M559 1380l-33 43l174 138l33 -43zM862 1143l152 -121q12 -12 12 -23v-1038q0 -11 -12 -20l-367 -256q-4 -4 -16 -4q-11 0 -15 4l-391 272l33 45l373 -262l338 237v351l-322 -226q-6 -6 -16 -6q-9 0 -15 6l-368 254q-12 9 -12 23v608l-142 113l33 45l154 -123
q10 -10 10 -21v-610l340 -233l338 235v592l-142 115z" />
    <glyph glyph-name="thorn" unicode="&#xfe;" 
 />
    <glyph glyph-name="ydieresis" unicode="&#xff;" horiz-adv-x="1218" 
d="M471 1391v159h55v-159h-55zM733 1391v159h55v-159h-55zM862 1143l152 -121q12 -12 12 -23v-1038q0 -11 -12 -20l-367 -256q-4 -4 -16 -4q-11 0 -15 4l-391 272l33 45l373 -262l338 237v351l-322 -226q-6 -6 -16 -6q-9 0 -15 6l-368 254q-12 9 -12 23v608l-142 113l33 45
l154 -123q10 -10 10 -21v-610l340 -233l338 235v592l-142 115z" />
    <glyph glyph-name="dotlessi" unicode="&#x131;" horiz-adv-x="706" 
d="M381 1001v-755l141 -113l-33 -43l-153 121q-10 7 -10 20v758l-142 113l35 43l152 -121q10 -7 10 -23z" />
    <glyph glyph-name="OE" unicode="&#x152;" horiz-adv-x="1886" 
d="M1700 870q12 -9 12 -22q0 -16 -14 -23l-686 -452l307 -213l348 243l33 -45l-367 -256q-15 -9 -30 0l-340 238l-361 -238q-4 -4 -16 -4q-13 0 -17 4l-364 256q-12 6 -12 23v467q0 16 12 22l364 256q17 10 33 0l348 -245l353 245q15 9 30 0zM924 381v453l-338 235
l-338 -235v-439l338 -235zM979 418l655 430l-317 221l-338 -235v-416z" />
    <glyph glyph-name="oe" unicode="&#x153;" horiz-adv-x="1886" 
d="M1700 870q12 -9 12 -22q0 -16 -14 -23l-686 -452l307 -213l348 243l33 -45l-367 -256q-15 -9 -30 0l-340 238l-361 -238q-4 -4 -16 -4q-13 0 -17 4l-364 256q-12 6 -12 23v467q0 16 12 22l364 256q17 10 33 0l348 -245l353 245q15 9 30 0zM924 381v453l-338 235
l-338 -235v-439l338 -235zM979 418l655 430l-317 221l-338 -235v-416z" />
    <glyph glyph-name="Ydieresis" unicode="&#x178;" horiz-adv-x="1218" 
d="M471 1391v159h55v-159h-55zM733 1391v159h55v-159h-55zM862 1143l152 -121q12 -12 12 -23v-1038q0 -11 -12 -20l-367 -256q-4 -4 -16 -4q-11 0 -15 4l-391 272l33 45l373 -262l338 237v351l-322 -226q-6 -6 -16 -6q-9 0 -15 6l-368 254q-12 9 -12 23v608l-142 113l33 45
l154 -123q10 -10 10 -21v-610l340 -233l338 235v592l-142 115z" />
    <glyph glyph-name="florin" unicode="&#x192;" 
 />
    <glyph glyph-name="circumflex" unicode="&#x2c6;" horiz-adv-x="708" 
d="M354 1487l-135 -107l-35 43l152 121q6 6 18 6q11 0 17 -6l153 -121l-35 -43z" />
    <glyph glyph-name="caron" unicode="&#x2c7;" 
 />
    <glyph glyph-name="breve" unicode="&#x2d8;" 
 />
    <glyph glyph-name="dotaccent" unicode="&#x2d9;" 
 />
    <glyph glyph-name="ring" unicode="&#x2da;" horiz-adv-x="710" 
d="M514 1595q12 -6 12 -22v-168q0 -17 -12 -23l-143 -102q-4 -4 -17 -4q-10 0 -14 4l-143 100q-13 6 -13 25v168q0 15 13 22l143 99q16 9 31 0zM471 1417v142l-117 79l-114 -79v-142l114 -80z" />
    <glyph glyph-name="ogonek" unicode="&#x2db;" 
 />
    <glyph glyph-name="tilde" unicode="&#x2dc;" horiz-adv-x="874" 
d="M367 1491l-152 -105l-31 48l166 112q16 9 31 0l129 -88l149 105l31 -47l-166 -113q-15 -9 -30 0z" />
    <glyph glyph-name="hungarumlaut" unicode="&#x2dd;" 
 />
    <glyph glyph-name="pi" unicode="&#x3c0;" 
 />
    <glyph glyph-name="endash" unicode="&#x2013;" horiz-adv-x="1445" 
d="M1092 643q12 0 16 -4l154 -121l-35 -45l-146 115h-725q-12 0 -18 6l-154 123l35 43l148 -117h725z" />
    <glyph glyph-name="emdash" unicode="&#x2014;" horiz-adv-x="1445" 
d="M1092 643q12 0 16 -4l154 -121l-35 -45l-146 115h-725q-12 0 -18 6l-154 123l35 43l148 -117h725z" />
    <glyph glyph-name="quoteleft" unicode="&#x2018;" horiz-adv-x="483" 
d="M203 1440l153 121l33 -43l-141 -113v-117h-55v131q0 11 10 21z" />
    <glyph glyph-name="quoteright" unicode="&#x2019;" horiz-adv-x="483" 
d="M238 1432v118h53v-131q0 -12 -10 -22l-152 -121l-35 43z" />
    <glyph glyph-name="quotesinglbase" unicode="&#x201a;" 
 />
    <glyph glyph-name="quotedblleft" unicode="&#x201c;" horiz-adv-x="843" 
d="M203 1440l153 121l33 -43l-141 -113v-117h-55v131q0 11 10 21zM563 1440l152 121l35 -43l-142 -113v-117h-55v131q0 11 10 21z" />
    <glyph glyph-name="quotedblright" unicode="&#x201d;" horiz-adv-x="843" 
d="M596 1432v118h55v-131q0 -12 -10 -22l-154 -121l-32 43zM238 1432v118h53v-131q0 -12 -10 -22l-152 -121l-35 43z" />
    <glyph glyph-name="quotedblbase" unicode="&#x201e;" 
 />
    <glyph glyph-name="dagger" unicode="&#x2020;" 
 />
    <glyph glyph-name="daggerdbl" unicode="&#x2021;" 
 />
    <glyph glyph-name="bullet" unicode="&#x2022;" horiz-adv-x="600" 
d="M322 618q-22 -14 -43 0l-78 56q-17 10 -17 31v102q0 19 17 29l78 55q21 14 43 0l77 -55q17 -10 17 -29v-102q0 -21 -17 -31z" />
    <glyph glyph-name="ellipsis" unicode="&#x2026;" horiz-adv-x="1218" 
d="M1001 80l-176 137l35 45l174 -137zM680 80l-176 137l35 45l174 -137zM360 80l-176 137l35 45l174 -137z" />
    <glyph glyph-name="perthousand" unicode="&#x2030;" 
 />
    <glyph glyph-name="guilsinglleft" unicode="&#x2039;" horiz-adv-x="534" 
d="M246 612l104 -151l-47 -31l-115 168q-9 16 0 31l115 168l47 -33z" />
    <glyph glyph-name="guilsinglright" unicode="&#x203a;" horiz-adv-x="534" 
d="M289 612l-105 152l45 33l115 -168q9 -15 0 -31l-115 -168l-45 31z" />
    <glyph glyph-name="fraction" unicode="&#x2044;" horiz-adv-x="1179" 
d="M233 78l-49 26l764 1455l47 -27z" />
    <glyph glyph-name="Euro" unicode="&#x20ac;" horiz-adv-x="1306" 
d="M727 1067l-340 -236v-75h367v-56h-367v-170h367v-55h-367v-84l340 -237l373 260l33 -45l-392 -271q-6 -6 -14 -6q-10 0 -16 6l-367 256q-12 6 -12 23v98h-148v55h148v170h-148v56h148v90q0 16 12 22l367 256q15 9 30 0l392 -272l-33 -45z" />
    <glyph glyph-name="trademark" unicode="&#x2122;" horiz-adv-x="1013" 
d="M258 1352v149h-74v55h205v-55h-76v-149h-55zM551 1501v-149h-55v204h333v-204h-55v149h-84v-149h-55v149h-84z" />
    <glyph glyph-name="Omega" unicode="&#x2126;" 
 />
    <glyph glyph-name="partialdiff" unicode="&#x2202;" horiz-adv-x="1171" 
d="M979 1268v-883q0 -19 -12 -25l-365 -254q-6 -6 -16 -6q-11 0 -17 6l-364 254q-12 6 -12 23v467q0 16 12 22l364 256q17 10 33 0l322 -225v350l-377 263l33 45l387 -271q12 -6 12 -22zM924 397v439l-338 237l-338 -237v-439l338 -235z" />
    <glyph glyph-name="Delta" unicode="&#x2206;" horiz-adv-x="1052" 
d="M842 479h-631q-17 0 -23 13q-8 16 -2 28l316 621q7 14 24 14q19 0 25 -14l315 -621q7 -14 0 -28q-6 -13 -24 -13zM258 535h539l-271 532z" />
    <glyph glyph-name="product" unicode="&#x220f;" 
 />
    <glyph glyph-name="summation" unicode="&#x2211;" 
 />
    <glyph glyph-name="radical" unicode="&#x221a;" 
 />
    <glyph glyph-name="infinity" unicode="&#x221e;" 
 />
    <glyph glyph-name="integral" unicode="&#x222b;" 
 />
    <glyph glyph-name="approxequal" unicode="&#x2248;" 
 />
    <glyph glyph-name="notequal" unicode="&#x2260;" 
 />
    <glyph glyph-name="lessequal" unicode="&#x2264;" 
 />
    <glyph glyph-name="greaterequal" unicode="&#x2265;" 
 />
    <glyph glyph-name="lozenge" unicode="&#x25ca;" 
 />
    <glyph glyph-name="uniFB01" unicode="&#xfb01;" 
 />
    <glyph glyph-name="uniFB02" unicode="&#xfb02;" 
 />
    </font>
</defs>
</svg>
